<svg width="250" height="82" viewBox="0 0 250 82" fill="none" xmlns="http://www.w3.org/2000/svg">
<g clip-path="url(#clip0_9_42)">
<path d="M30.7886 0.00720215H33.0117C40.7299 0.17581 48.3222 3.29505 53.7752 8.81696C51.7618 10.8824 49.7064 12.8635 47.7349 14.929C44.6728 12.147 40.9815 9.99721 36.9547 9.23847C30.9983 7.97392 24.5805 9.11202 19.5889 12.5263C14.1359 16.1092 10.4446 22.1791 9.64765 28.6705C8.76678 35.0776 10.5705 41.8219 14.7232 46.7958C18.7081 51.6433 24.7903 54.6783 31.0822 54.889C36.9547 55.2262 43.0789 53.4137 47.3574 49.2828C50.7131 46.3743 52.2651 41.9484 52.7685 37.6489C45.8054 37.6489 38.8423 37.691 31.8792 37.6489V28.9656H61.1997C62.7097 38.2812 60.5285 48.777 53.4815 55.437C48.7836 60.158 42.2819 62.94 35.6544 63.488C29.2366 64.1203 22.6091 62.8979 16.9044 59.7786C10.0671 56.1114 4.61409 49.9151 1.92953 42.6228C-0.587248 35.9206 -0.629195 28.3333 1.7198 21.589C3.85906 15.4348 7.9698 9.99721 13.255 6.20354C18.3305 2.45201 24.4966 0.38657 30.7886 0.00720215Z" fill="#3780FF"/>
<path d="M198.993 2.19916H207.97V62.3921C204.991 62.3921 201.971 62.4343 198.993 62.35C199.035 42.3278 198.993 22.2635 198.993 2.19916Z" fill="#38B137"/>
<path d="M81.166 23.0643C86.7029 22.0106 92.7012 23.1908 97.2734 26.5208C101.426 29.4714 104.32 34.1082 105.201 39.1664C106.334 45.0255 104.908 51.4326 101.132 56.0693C97.0636 61.254 90.3942 64.036 83.8925 63.6145C77.9361 63.2773 72.1475 60.2845 68.624 55.3949C64.6391 49.9994 63.6744 42.5807 65.8556 36.2579C68.0368 29.4714 74.2029 24.2868 81.166 23.0643ZM82.4244 31.0732C80.1593 31.6633 78.062 32.9701 76.5519 34.8247C72.4831 39.7144 72.7348 47.6811 77.223 52.2335C79.7818 54.8469 83.6408 56.0693 87.2063 55.3527C90.52 54.7626 93.4143 52.5285 95.0083 49.5779C97.7767 44.5618 96.9798 37.6489 92.7432 33.7288C90.0167 31.1997 86.0318 30.1459 82.4244 31.0732Z" fill="#FA3913"/>
<path d="M125.629 23.0643C131.963 21.8419 138.884 23.6123 143.624 28.0804C151.342 35.0355 152.181 48.0604 145.596 56.0693C141.611 61.1275 135.151 63.9096 128.775 63.6145C122.693 63.4459 116.695 60.4109 113.087 55.3949C109.018 49.873 108.138 42.2856 110.445 35.8364C112.752 29.2607 118.792 24.2446 125.629 23.0643ZM126.888 31.0732C124.622 31.6633 122.525 32.97 121.015 34.7826C116.988 39.5879 117.156 47.4282 121.476 52.0227C124.035 54.7626 128.02 56.1115 131.711 55.3527C134.983 54.7204 137.919 52.5285 139.513 49.5779C142.24 44.5197 141.443 37.6068 137.164 33.6866C134.438 31.1575 130.453 30.1459 126.888 31.0732Z" fill="#FCBD06"/>
<path d="M163.339 25.5092C168.163 22.4742 174.581 21.6312 179.782 24.2446C181.418 24.9612 182.76 26.1836 184.061 27.406C184.102 26.2679 184.061 25.0877 184.102 23.9074C186.913 23.9496 189.723 23.9074 192.576 23.9496V61.1276C192.534 66.7338 191.107 72.6772 187.081 76.7659C182.676 81.2762 175.923 82.6672 169.841 81.7399C163.339 80.7704 157.676 76.0072 155.159 69.9795C157.676 68.7571 160.319 67.7876 162.92 66.6495C164.388 70.1059 167.366 73.0566 171.099 73.731C174.832 74.4054 179.153 73.4781 181.586 70.3588C184.186 67.1553 184.186 62.7715 184.061 58.8514C182.131 60.7482 179.908 62.4343 177.223 63.0666C171.393 64.7105 164.975 62.6872 160.487 58.7249C155.956 54.7626 153.272 48.6506 153.524 42.5807C153.649 35.7099 157.508 29.0921 163.339 25.5092ZM172.022 30.9046C169.463 31.3261 167.072 32.7593 165.436 34.7405C161.493 39.4615 161.493 47.0067 165.478 51.6434C167.743 54.3833 171.393 55.9007 174.916 55.5214C178.23 55.1841 181.292 53.0765 182.928 50.1681C185.696 45.2363 185.235 38.5341 181.502 34.2346C179.195 31.5791 175.503 30.2723 172.022 30.9046Z" fill="#3780FF"/>
<path d="M218.75 27.6589C223.784 22.9379 231.544 21.3361 238.003 23.8231C244.128 26.1414 248.029 32.0006 250 38.0283C240.898 41.822 231.837 45.5735 222.735 49.3671C223.993 51.7698 225.923 53.9617 228.524 54.8469C232.173 56.1536 236.535 55.6899 239.597 53.2451C240.814 52.3178 241.779 51.0954 242.701 49.9151C245.008 51.4747 247.315 52.9922 249.623 54.5518C246.351 59.4836 240.856 62.9401 234.941 63.488C228.398 64.2889 221.435 61.7598 217.198 56.6173C210.235 48.5241 210.906 34.9512 218.75 27.6589ZM223.238 35.457C221.812 37.5225 221.225 40.0516 221.267 42.5385C227.349 40.0094 233.431 37.4803 239.513 34.909C238.507 32.5485 236.074 31.1154 233.599 30.736C229.614 30.0194 225.461 32.1692 223.238 35.457Z" fill="#FA3913"/>
</g>
<defs>
<clipPath id="clip0_9_42">
<rect width="250" height="82" fill="white"/>
</clipPath>
</defs>
</svg>
