<svg width="250" height="50" viewBox="0 0 250 50" fill="none" xmlns="http://www.w3.org/2000/svg">
<path d="M8.19167 32.9722C8.19167 35.845 8.82778 38.0535 9.65833 39.3879C10.7472 41.1359 12.3722 41.8776 14.0278 41.8776C16.1639 41.8776 18.1167 41.351 21.8833 36.1814C24.9 32.0375 28.4556 26.2228 30.8472 22.5751L34.8972 16.3965C37.7111 12.1064 40.9667 7.33665 44.7028 4.10533C47.75 1.46678 51.0389 0 54.35 0C59.9056 0 65.2 3.19548 69.25 9.18941C73.6833 15.7541 75.8361 24.0226 75.8361 32.5558C75.8361 37.6289 74.8278 41.3565 73.1139 44.3011C71.4583 47.1492 68.2306 49.9945 62.8 49.9945V41.8748C67.45 41.8748 68.6083 37.6344 68.6083 32.7819C68.6083 25.8671 66.9833 18.1913 63.4056 12.7075C60.8667 8.81721 57.575 6.44059 53.9528 6.44059C50.0361 6.44059 46.8861 9.37139 43.3444 14.5988C41.4611 17.3752 39.5278 20.761 37.3583 24.5795L34.9694 28.7814C30.1694 37.2291 28.9528 39.1508 26.5556 42.327C22.35 47.8853 18.7583 49.9945 14.0306 49.9945C8.42222 49.9945 4.875 47.5848 2.67778 43.9509C0.880555 40.9926 0 37.1078 0 32.6799L8.19167 32.9722Z" fill="#0081FB"/>
<path d="M6.45825 9.76567C10.2138 4.01987 15.6333 0.0027771 21.8499 0.0027771C25.4499 0.0027771 29.0277 1.06151 32.7638 4.0888C36.8527 7.40008 41.2083 12.8509 46.6444 21.839L48.5944 25.0648C53.2999 32.8453 55.9749 36.8459 57.5416 38.7345C59.5555 41.158 60.9666 41.8804 62.7999 41.8804C67.4499 41.8804 68.6082 37.6399 68.6082 32.7875L75.8332 32.5614C75.8332 37.6344 74.8249 41.362 73.111 44.3066C71.4555 47.1547 68.2277 50 62.7971 50C59.4221 50 56.4305 49.2721 53.1249 46.1759C50.5832 43.7993 47.611 39.5782 45.3249 35.7817L38.5249 24.5051C35.1138 18.8448 31.9833 14.6264 30.1694 12.7158C28.2194 10.6617 25.7166 8.18034 21.7166 8.18034C18.4805 8.18034 15.7333 10.4329 13.4333 13.882L6.45825 9.76567Z" fill="url(#paint0_linear_13_2)"/>
<path d="M21.7167 8.1748C18.4806 8.1748 15.7333 10.4274 13.4333 13.8765C10.1806 18.7483 8.19167 26.0022 8.19167 32.9722C8.19167 35.845 8.82778 38.0535 9.65833 39.3879L2.675 43.9537C0.880555 40.9926 0 37.1078 0 32.6799C0 24.6319 2.225 16.2421 6.45833 9.76289C10.2139 4.01709 15.6333 0 21.85 0L21.7167 8.1748Z" fill="url(#paint1_linear_13_2)"/>
<path d="M91.7555 1.58258H101.23L117.342 30.5101L133.455 1.58258H142.725V49.1177H134.994V12.6854L120.864 37.9129H113.611L99.4832 12.6854V49.115H91.7527V1.58258H91.7555ZM166.944 19.3052C161.4 19.3052 158.064 23.4464 157.264 28.5746H176.078C175.689 23.292 172.619 19.3052 166.944 19.3052ZM149.6 31.4943C149.6 20.7058 156.625 12.8536 167.078 12.8536C177.361 12.8536 183.5 20.6066 183.5 32.0706V34.177H157.264C158.194 39.7546 161.925 43.5125 167.936 43.5125C172.733 43.5125 175.73 42.0596 178.575 39.4017L182.68 44.3921C178.811 47.9239 173.892 49.9586 167.661 49.9586C156.344 49.9642 149.6 41.7728 149.6 31.4943ZM192.872 19.9862H185.758V13.7055H192.872V3.3168H200.33V13.7055H211.139V19.9862H200.33V35.9085C200.33 41.3455 202.08 43.2754 206.386 43.2754C208.35 43.2754 209.478 43.1073 211.142 42.8343V49.0488C209.069 49.6305 207.092 49.898 204.95 49.898C196.9 49.898 192.875 45.5307 192.875 36.7935L192.872 19.9862ZM242.542 26.0959C241.044 22.3435 237.703 19.5782 232.792 19.5782C226.411 19.5782 222.325 24.0722 222.325 31.3923C222.325 38.5305 226.086 43.2424 232.486 43.2424C237.517 43.2424 241.108 40.3364 242.542 36.7218V26.0959ZM250 49.115H242.68V44.1577C240.633 47.0775 236.911 49.9642 230.88 49.9642C221.18 49.9642 214.7 41.9052 214.7 31.3923C214.7 20.7803 221.339 12.8536 231.292 12.8536C236.214 12.8536 240.072 14.8056 242.68 18.2548V13.7055H250V49.115Z" fill="#192830"/>
<defs>
<linearGradient id="paint0_linear_13_2" x1="16.4388" y1="23.7031" x2="68.6518" y2="26.36" gradientUnits="userSpaceOnUse">
<stop stop-color="#0064E1"/>
<stop offset="0.4" stop-color="#0064E1"/>
<stop offset="0.83" stop-color="#0073EE"/>
<stop offset="1" stop-color="#0082FB"/>
</linearGradient>
<linearGradient id="paint1_linear_13_2" x1="10.9244" y1="36.3846" x2="10.9244" y2="17.2771" gradientUnits="userSpaceOnUse">
<stop stop-color="#0082FB"/>
<stop offset="1" stop-color="#0064E0"/>
</linearGradient>
</defs>
</svg>
